HIERARCHY
ROOT Hip
{
	OFFSET	0.00  0.00  0.00 
	CHANNELS 6 Xposition Yposition Zposition Xrotation Zrotation Yrotation
	JOINT Abdomen
	{
		OFFSET	0.039181 5.637571 0.560720
		CHANNELS 3 Xrotation Zrotation Yrotation
		JOINT Chest
		{
			OFFSET	-0.136063 7.190207 -0.124363
			CHANNELS 3 Xrotation Zrotation Yrotation
			JOINT Neck
			{
				OFFSET	0.193764 10.560151 -1.259468
				CHANNELS 3 Xrotation Zrotation Yrotation
				JOINT Head
				{
					OFFSET	-0.096882 0.362727 0.622109
					CHANNELS 3 Xrotation Zrotation Yrotation
					JOINT Left Eye
					{
						OFFSET	1.356350 5.062673 4.221998
						CHANNELS 3 Zrotation Yrotation Xrotation
						End Site
						{
							OFFSET 0.000000 0.000000 0.871939
						}
					}
					JOINT Right Eye
					{
						OFFSET	-1.356350 5.062673 4.221998
						CHANNELS 3 Zrotation Yrotation Xrotation
						End Site
						{
							OFFSET 0.000000 0.000000 0.871939
						}
					}
				}
			}
			JOINT Right Collar
			{
				OFFSET	-3.778404 4.940989 0.193764
				CHANNELS 3 Yrotation Zrotation Xrotation
				JOINT Right Shoulder
				{
					OFFSET	-2.615818 1.356350 -0.484411
					CHANNELS 3 Zrotation Yrotation Xrotation
					JOINT Right Forearm
					{
						OFFSET	-11.432094 0.484410 -1.937643
						CHANNELS 3 Yrotation Zrotation Xrotation
						JOINT Right Hand
						{
							OFFSET	-10.657035 -0.096881 0.581293
							CHANNELS 3 Zrotation Yrotation Xrotation
							JOINT Right Thumb 1
							{
								OFFSET	-0.678175 -0.581297 0.968821
								CHANNELS 3 Zrotation Yrotation Xrotation
								JOINT Right Thumb 2
								{
									OFFSET	-0.968823 -0.484410 0.484411
									CHANNELS 3 Zrotation Yrotation Xrotation
									JOINT Right Thumb 3
									{
										OFFSET	-0.929680 -0.497680 0.055639
										CHANNELS 3 Zrotation Yrotation Xrotation
										End Site
										{
											OFFSET -1.097190 -0.513867 -0.001182
										}
									}
								}
							}
							JOINT Right Index 1
							{
								OFFSET	-3.003348 0.581291 1.259468
								CHANNELS 3 Zrotation Yrotation Xrotation
								JOINT Right Index 2
								{
									OFFSET	-1.468153 -0.266718 0.069755
									CHANNELS 3 Zrotation Yrotation Xrotation
									JOINT Right Index 3
									{
										OFFSET	-0.944212 -0.382684 -0.083028
										CHANNELS 3 Zrotation Yrotation Xrotation
										End Site
										{
											OFFSET -0.675657 -0.558718 0.000000
										}
									}
								}
							}
							JOINT Right Mid 1
							{
								OFFSET	-3.197113 0.581291 0.290646
								CHANNELS 3 Zrotation Yrotation Xrotation
								JOINT Right Mid 2
								{
									OFFSET	-1.550115 -0.387529 0.000000
									CHANNELS 3 Zrotation Yrotation Xrotation
									JOINT Right Mid 3
									{
										OFFSET	-0.731071 -0.803926 0.018214
										CHANNELS 3 Zrotation Yrotation Xrotation
										End Site
										{
											OFFSET -0.366992 -0.937043 0.083406
										}
									}
								}
							}
							JOINT Right Ring 1
							{
								OFFSET	-3.197113 0.387529 -0.678175
								CHANNELS 3 Zrotation Yrotation Xrotation
								JOINT Right Ring 2
								{
									OFFSET	-1.259466 -0.484410 0.096882
									CHANNELS 3 Zrotation Yrotation Xrotation
									JOINT Right Ring 3
									{
										OFFSET	-0.551552 -0.801218 0.111221
										CHANNELS 3 Zrotation Yrotation Xrotation
										End Site
										{
											OFFSET -0.245208 -0.810324 0.000000
										}
									}
								}
							}
							JOINT Right Pinky 1
							{
								OFFSET	-2.809584 -0.096881 -1.453232
								CHANNELS 3 Zrotation Yrotation Xrotation
								JOINT Right Pinky 2
								{
									OFFSET	-0.984323 -0.316034 0.039140
									CHANNELS 3 Zrotation Yrotation Xrotation
									JOINT Right Pinky 3
									{
										OFFSET	-0.468908 -0.555906 0.057742
										CHANNELS 3 Zrotation Yrotation Xrotation
										End Site
										{
											OFFSET -0.479664 -0.640198 0.044081
										}
									}
								}
							}
						}
					}
				}
			}
			JOINT Left Collar
			{
				OFFSET	3.972168 4.940989 0.193764
				CHANNELS 3 Yrotation Zrotation Xrotation
				JOINT Left Shoulder
				{
					OFFSET	2.615818 1.356350 -0.484411
					CHANNELS 3 Zrotation Yrotation Xrotation
					JOINT Left Forearm
					{
						OFFSET	11.432094 0.484410 -1.937643
						CHANNELS 3 Yrotation Zrotation Xrotation
						JOINT Left Hand
						{
							OFFSET	10.657035 -0.096881 0.581293
							CHANNELS 3 Zrotation Yrotation Xrotation
							JOINT Left Thumb 1
							{
								OFFSET	0.678175 -0.581297 0.968821
								CHANNELS 3 Zrotation Yrotation Xrotation
								JOINT Left Thumb 2
								{
									OFFSET	0.968823 -0.484410 0.484411
									CHANNELS 3 Zrotation Yrotation Xrotation
									JOINT Left Thumb 3
									{
										OFFSET	0.929680 -0.497680 0.055639
										CHANNELS 3 Zrotation Yrotation Xrotation
										End Site
										{
											OFFSET 1.097190 -0.513867 -0.001182
										}
									}
								}
							}
							JOINT Left Index 1
							{
								OFFSET	3.003348 0.581291 1.259468
								CHANNELS 3 Zrotation Yrotation Xrotation
								JOINT Left Index 2
								{
									OFFSET	1.468153 -0.266718 0.069755
									CHANNELS 3 Zrotation Yrotation Xrotation
									JOINT Left Index 3
									{
										OFFSET	0.944212 -0.382684 -0.083028
										CHANNELS 3 Zrotation Yrotation Xrotation
										End Site
										{
											OFFSET 0.675657 -0.558718 0.000000
										}
									}
								}
							}
							JOINT Left Mid 1
							{
								OFFSET	3.197113 0.581291 0.290646
								CHANNELS 3 Zrotation Yrotation Xrotation
								JOINT Left Mid 2
								{
									OFFSET	1.550115 -0.387529 0.000000
									CHANNELS 3 Zrotation Yrotation Xrotation
									JOINT Left Mid 3
									{
										OFFSET	0.731071 -0.803926 0.018214
										CHANNELS 3 Zrotation Yrotation Xrotation
										End Site
										{
											OFFSET 0.366992 -0.937043 0.083406
										}
									}
								}
							}
							JOINT Left Ring 1
							{
								OFFSET	3.197113 0.387529 -0.678175
								CHANNELS 3 Zrotation Yrotation Xrotation
								JOINT Left Ring 2
								{
									OFFSET	1.259466 -0.484410 0.096882
									CHANNELS 3 Zrotation Yrotation Xrotation
									JOINT Left Ring 3
									{
										OFFSET	0.551552 -0.801218 0.111221
										CHANNELS 3 Zrotation Yrotation Xrotation
										End Site
										{
											OFFSET 0.245208 -0.810324 0.000000
										}
									}
								}
							}
							JOINT Left Pinky 1
							{
								OFFSET	2.809584 -0.096881 -1.453232
								CHANNELS 3 Zrotation Yrotation Xrotation
								JOINT Left Pinky 2
								{
									OFFSET	0.984323 -0.316034 0.039140
									CHANNELS 3 Zrotation Yrotation Xrotation
									JOINT Left Pinky 3
									{
										OFFSET	0.468908 -0.555906 0.057742
										CHANNELS 3 Zrotation Yrotation Xrotation
										End Site
										{
											OFFSET 0.479664 -0.640198 0.044081
										}
									}
								}
							}
						}
					}
				}
			}
		}
	}
	JOINT Right Thigh
	{
		OFFSET	-3.875286 0.717509 0.339475
		CHANNELS 3 Xrotation Zrotation Yrotation
		JOINT Right Shin
		{
			OFFSET	-0.434323 -20.673391 0.003424
			CHANNELS 3 Xrotation Zrotation Yrotation
			JOINT Right Foot
			{
				OFFSET	-0.063555 -15.653578 -0.075717
				CHANNELS 3 Xrotation Yrotation Zrotation
				JOINT Right Toe
				{
					OFFSET	-0.513669 -2.790361 5.061637
					CHANNELS 3 Xrotation Yrotation Zrotation
					End Site
					{
						OFFSET 0.000000 -0.280183 2.993164
					}
				}
			}
		}
	}
	JOINT Left Thigh
	{
		OFFSET	3.875286 0.717509 0.339475
		CHANNELS 3 Xrotation Zrotation Yrotation
		JOINT Left Shin
		{
			OFFSET	0.434323 -20.673391 0.003424
			CHANNELS 3 Xrotation Zrotation Yrotation
			JOINT Left Foot
			{
				OFFSET	0.063555 -15.653578 -0.075717
				CHANNELS 3 Xrotation Yrotation Zrotation
				JOINT Left Toe
				{
					OFFSET	0.513669 -2.874842 4.946725
					CHANNELS 3 Xrotation Yrotation Zrotation
					End Site
					{
						OFFSET 0.000000 -0.195702 3.108076
					}
				}
			}
		}
	}
}
MOTION
Frames:     7
Frame Time: 0.033333
39.528500 41.695423 -78.688751 -10.414200 5.187050 -166.886002 -3.179340 -5.616400 4.880310 10.722700 0.172713 0.912137 0.000000 0.000000 0.000000 30.239201 17.803600 -11.990300 0.000000 0.000000 0.000000 0.000000 0.000000 0.000000 2.832300 -7.402930 3.377190 89.100754 -17.044985 1.999421 50.095524 0.106770 -0.517696 -15.296741 -34.406273 17.587288 -0.148866 4.300910 -2.889064 -0.969521 10.750637 -5.265257 -0.352224 -0.698024 0.196501 11.000000 -3.000000 0.000000 -0.703124 0.000000 0.000000 -0.351563 0.000000 0.000000 -6.328124 0.000000 0.000000 -0.175783 0.000000 0.000000 -0.878282 -0.851486 0.565014 -16.874960 -0.027392 -0.173635 -0.527215 -0.145857 -0.098107 -0.330115 0.000000 0.000000 -25.312502 0.000000 0.000000 -0.879166 -0.248563 -0.003813 25.488283 0.000000 0.000000 1.639560 15.340400 1.469190 -94.497566 11.058558 -9.098186 -43.064594 0.026592 -0.393595 13.178138 34.038097 10.378772 -0.363538 -4.801451 -3.043116 0.453299 -10.927784 -5.334939 -0.176190 0.239587 -0.066301 -11.000000 3.000000 0.000000 0.175868 -0.165140 -0.060234 -0.175780 0.000000 0.000000 5.800781 0.000000 0.000000 -0.175783 0.000000 0.000000 0.337787 0.650167 0.088474 16.347645 -0.146858 -0.200575 -0.000368 0.047000 -0.244107 -0.154333 0.000000 0.000000 24.785158 0.000000 0.000000 0.351429 0.121987 -0.126563 -26.015625 0.000000 0.000000 -19.640013 0.195544 -23.190435 27.419405 0.081229 -0.620689 -5.408539 -21.444387 12.438313 -0.000457 0.016384 -0.175016 -19.935034 7.316720 11.470293 29.003654 -0.024929 0.113868 -14.804188 3.148894 -0.102980 0.000000 0.000000 0.000000 
39.979485 41.682228 -78.873894 -10.234900 5.016960 -167.014008 -3.179340 -5.616400 4.880310 10.898500 0.172612 0.912666 0.000000 0.000000 0.000000 29.556601 17.131300 -11.566300 0.000000 0.000000 0.000000 0.000000 0.000000 0.000000 2.832300 -7.402930 3.377190 89.017784 -16.653463 1.803818 50.095528 0.106133 -0.517440 -15.655343 -34.064194 17.821398 -0.148866 4.300910 -2.889064 -0.969521 10.750637 -5.265257 -0.352224 -0.698024 0.196501 11.000000 -3.000000 0.000000 -0.703124 0.000000 0.000000 -0.351563 0.000000 0.000000 -6.328124 0.000000 0.000000 -0.175783 0.000000 0.000000 -0.878282 -0.851486 0.565014 -16.874960 -0.027392 -0.173635 -0.527215 -0.145857 -0.098107 -0.330115 0.000000 0.000000 -25.312502 0.000000 0.000000 -0.879166 -0.248563 -0.003813 25.488283 0.000000 0.000000 1.639560 15.340400 1.469190 -94.150391 11.058759 -8.896091 -42.888706 -0.152603 -0.450660 13.177245 34.038425 10.554755 -0.363538 -4.801451 -3.043116 0.453299 -10.927784 -5.334939 -0.176190 0.239587 -0.066301 -11.000000 3.000000 0.000000 0.175868 -0.165140 -0.060234 -0.175780 0.000000 0.000000 5.800781 0.000000 0.000000 -0.175783 0.000000 0.000000 0.337787 0.650167 0.088474 16.347645 -0.146858 -0.200575 -0.000368 0.047000 -0.244107 -0.154333 0.000000 0.000000 24.785158 0.000000 0.000000 0.351429 0.121987 -0.126563 -26.015625 0.000000 0.000000 -19.100487 0.901858 -23.848328 26.542034 0.000323 -0.285117 -6.146945 -21.509115 11.407072 -0.000457 0.016384 -0.175016 -19.923937 7.835403 11.026195 29.355026 -0.112251 0.092885 -14.820165 3.569234 -0.438764 0.000000 0.000000 0.000000 
40.429016 41.669033 -79.052925 -10.058500 5.019710 -167.175003 -3.180320 -5.791910 4.889960 10.898500 0.172612 0.912666 0.000000 0.000000 0.000000 28.883301 16.448299 -10.951300 0.000000 0.000000 0.000000 0.000000 0.000000 0.000000 2.831190 -7.227360 3.368100 88.962227 -16.452024 1.613586 50.271305 0.105896 -0.519386 -15.639792 -33.874706 17.697735 -0.148866 4.300910 -2.889064 -0.969521 10.750637 -5.265257 -0.352224 -0.698024 0.196501 11.000000 -3.000000 0.000000 -0.703124 0.000000 0.000000 -0.351563 0.000000 0.000000 -6.328124 0.000000 0.000000 -0.175783 0.000000 0.000000 -0.878282 -0.851486 0.565014 -16.874960 -0.027392 -0.173635 -0.527215 -0.145857 -0.098107 -0.330115 0.000000 0.000000 -25.312502 0.000000 0.000000 -0.879166 -0.248563 -0.003813 25.488283 0.000000 0.000000 1.457350 15.335700 1.515690 -94.152977 11.235492 -9.088158 -42.888706 -0.152224 -0.450535 13.177861 34.038212 10.554578 -0.363538 -4.801451 -3.043116 0.453299 -10.927784 -5.334939 -0.176190 0.239587 -0.066301 -11.000000 3.000000 0.000000 0.175868 -0.165140 -0.060234 -0.175780 0.000000 0.000000 5.800781 0.000000 0.000000 -0.175783 0.000000 0.000000 0.337787 0.650167 0.088474 16.347645 -0.146858 -0.200575 -0.000368 0.047000 -0.244107 -0.154333 0.000000 0.000000 24.785158 0.000000 0.000000 0.351429 0.121987 -0.126563 -26.015625 0.000000 0.000000 -18.504896 1.800048 -23.826063 26.012463 0.077391 -0.792202 -6.822247 -21.584511 11.187316 -0.000457 0.016384 -0.175016 -19.810339 8.576458 10.742715 29.530993 -0.025335 0.115922 -14.323898 3.562970 -0.738387 0.000000 0.000000 0.000000 
40.848518 41.636051 -79.183815 -9.882070 5.022410 -167.511002 -3.002710 -5.617330 4.863110 10.898400 0.000000 0.878906 0.000000 0.000000 0.000000 27.992399 15.469900 -10.527900 0.000000 0.000000 0.000000 0.000000 0.000000 0.000000 2.831190 -7.227360 3.368100 88.934311 -16.263340 1.657484 50.446793 0.248949 -0.579516 -15.713424 -33.843979 17.772200 -0.148866 4.300910 -2.889064 -0.969521 10.750637 -5.265257 -0.352224 -0.698024 0.196501 11.000000 -3.000000 0.000000 -0.703124 0.000000 0.000000 -0.351563 0.000000 0.000000 -6.328124 0.000000 0.000000 -0.175783 0.000000 0.000000 -0.878282 -0.851486 0.565014 -16.874960 -0.027392 -0.173635 -0.527215 -0.145857 -0.098107 -0.330115 0.000000 0.000000 -25.312502 0.000000 0.000000 -0.879166 -0.248563 -0.003813 25.488283 0.000000 0.000000 1.639560 15.340400 1.469190 -94.152977 11.235494 -9.088154 -42.713047 0.026973 -0.390025 13.186357 34.225750 10.324175 -0.363538 -4.801451 -3.043116 0.453299 -10.927784 -5.334939 -0.176190 0.239587 -0.066301 -11.000000 3.000000 0.000000 0.175868 -0.165140 -0.060234 -0.175780 0.000000 0.000000 5.800781 0.000000 0.000000 -0.175783 0.000000 0.000000 0.337787 0.650167 0.088474 16.347645 -0.146858 -0.200575 -0.000368 0.047000 -0.244107 -0.154333 0.000000 0.000000 24.785158 0.000000 0.000000 0.351429 0.121987 -0.126563 -26.015625 0.000000 0.000000 -18.070219 2.471593 -24.467695 25.487360 0.000334 -0.280626 -7.891836 -21.207165 10.125019 -0.000457 0.016384 -0.175016 -19.735764 9.219814 11.148607 30.059038 -0.026738 -0.057804 -14.675176 3.571810 -0.680960 0.000000 0.000000 0.000000 
41.217056 41.622868 -79.260452 -9.705630 5.025070 -167.847000 -2.825250 -5.442640 5.013090 10.898500 -0.172612 0.845142 0.000000 0.000000 0.000000 26.938700 14.495200 -10.120500 0.000000 0.000000 0.000000 0.000000 0.000000 0.000000 2.654290 -7.237600 3.345990 88.961899 -16.099718 1.973894 50.622856 0.105430 -0.523286 -15.653336 -34.065018 17.822031 -0.148866 4.300910 -2.889064 -0.969521 10.750637 -5.265257 -0.352224 -0.698024 0.196501 11.000000 -3.000000 0.000000 -0.703124 0.000000 0.000000 -0.351563 0.000000 0.000000 -6.328124 0.000000 0.000000 -0.175783 0.000000 0.000000 -0.878282 -0.851486 0.565014 -16.874960 -0.027392 -0.173635 -0.527215 -0.145857 -0.098107 -0.330115 0.000000 0.000000 -25.312502 0.000000 0.000000 -0.879166 -0.248563 -0.003813 25.488283 0.000000 0.000000 1.640950 15.516100 1.463990 -94.486641 11.059332 -10.219168 -42.713028 -0.099348 -0.431252 13.320835 34.179192 10.635163 -0.363538 -4.801451 -3.043116 0.453299 -10.927784 -5.334939 -0.176190 0.239587 -0.066301 -11.000000 3.000000 0.000000 0.175868 -0.165140 -0.060234 -0.175780 0.000000 0.000000 5.800781 0.000000 0.000000 -0.175783 0.000000 0.000000 0.337787 0.650167 0.088474 16.347645 -0.146858 -0.200575 -0.000368 0.047000 -0.244107 -0.154333 0.000000 0.000000 24.785158 0.000000 0.000000 0.351429 0.121987 -0.126563 -26.015625 0.000000 0.000000 -17.597694 3.202350 -24.228472 24.782009 0.073995 -0.788603 -8.198467 -21.151876 9.856370 -0.000457 0.016384 -0.175016 -20.027559 9.835732 10.858705 30.233917 -0.115830 0.094828 -13.963016 3.918539 -0.958258 0.000000 0.000000 0.000000 
41.567772 41.583290 -79.321877 -9.705630 5.025070 -168.022995 -2.647910 -5.267840 4.988370 10.722900 -0.345426 0.812437 0.000000 0.000000 0.000000 25.723200 13.517900 -9.719460 0.000000 0.000000 0.000000 0.000000 0.000000 0.000000 2.654290 -7.237600 3.345990 88.934006 -15.911011 2.016955 50.798351 0.247146 -0.583385 -15.341873 -33.998238 17.688919 -0.148866 4.300910 -2.889064 -0.969521 10.750637 -5.265257 -0.352224 -0.698024 0.196501 11.000000 -3.000000 0.000000 -0.703124 0.000000 0.000000 -0.351563 0.000000 0.000000 -6.328124 0.000000 0.000000 -0.175783 0.000000 0.000000 -0.878282 -0.851486 0.565014 -16.874960 -0.027392 -0.173635 -0.527215 -0.145857 -0.098107 -0.330115 0.000000 0.000000 -25.312502 0.000000 0.000000 -0.879166 -0.248563 -0.003813 25.488283 0.000000 0.000000 1.642360 15.691800 1.458800 -94.595955 10.870046 -10.494901 -42.712582 0.199128 -0.333832 13.198965 34.411694 10.345403 -0.363538 -4.801451 -3.043116 0.453299 -10.927784 -5.334939 -0.176190 0.239587 -0.066301 -11.000000 3.000000 0.000000 0.175868 -0.165140 -0.060234 -0.175780 0.000000 0.000000 5.800781 0.000000 0.000000 -0.175783 0.000000 0.000000 0.337787 0.650167 0.088474 16.347645 -0.146858 -0.200575 -0.000368 0.047000 -0.244107 -0.154333 0.000000 0.000000 24.785158 0.000000 0.000000 0.351429 0.121987 -0.126563 -26.015625 0.000000 0.000000 -17.500521 3.709023 -25.012194 24.433390 0.000366 -0.100550 -8.603153 -20.861385 9.341822 -0.000457 0.016384 -0.175016 -20.307341 10.480737 10.695214 30.409697 -0.116459 0.095234 -13.795383 4.180569 -1.224352 0.000000 0.000000 0.000000 
41.933987 41.556911 -79.362953 -9.705630 5.025070 -168.375000 -2.293600 -4.917950 4.942120 10.723100 -0.518138 0.779203 0.000000 0.000000 0.000000 24.721399 12.657000 -9.342730 0.000000 0.000000 0.000000 0.000000 0.000000 0.000000 2.654290 -7.237600 3.345990 88.918312 -15.985663 2.036435 50.798622 0.105227 -0.525251 -15.266996 -34.028454 17.438494 -0.148866 4.300910 -2.889064 -0.969521 10.750637 -5.265257 -0.352224 -0.698024 0.196501 11.000000 -3.000000 0.000000 -0.703124 0.000000 0.000000 -0.351563 0.000000 0.000000 -6.328124 0.000000 0.000000 -0.175783 0.000000 0.000000 -0.878282 -0.851486 0.565014 -16.874960 -0.027392 -0.173635 -0.527215 -0.145857 -0.098107 -0.330115 0.000000 0.000000 -25.312502 0.000000 0.000000 -0.879166 -0.248563 -0.003813 25.488283 0.000000 0.000000 1.824880 15.696300 1.411240 -94.772232 11.044921 -10.794002 -42.888813 0.030508 -0.390586 13.200166 34.411293 10.520790 -0.363538 -4.801451 -3.043116 0.453299 -10.927784 -5.334939 -0.176190 0.239587 -0.066301 -11.000000 3.000000 0.000000 0.175868 -0.165140 -0.060234 -0.175780 0.000000 0.000000 5.800781 0.000000 0.000000 -0.175783 0.000000 0.000000 0.337787 0.650167 0.088474 16.347645 -0.146858 -0.200575 -0.000368 0.047000 -0.244107 -0.154333 0.000000 0.000000 24.785158 0.000000 0.000000 0.351429 0.121987 -0.126563 -26.015625 0.000000 0.000000 -17.326437 4.408596 -24.766510 23.903820 0.071577 -0.610400 -9.055537 -20.718313 9.079795 -0.000457 0.016384 -0.175016 -20.449181 10.977736 10.404269 30.409891 -0.026474 0.119225 -13.222783 4.203959 -1.069148 0.000000 0.000000 0.000000 
